<?xml version="1.0" encoding="UTF-8" standalone="no"?>
<!-- Created with Inkscape (http://www.inkscape.org/) -->

<svg
   xmlns:dc="http://purl.org/dc/elements/1.1/"
   xmlns:cc="http://creativecommons.org/ns#"
   xmlns:rdf="http://www.w3.org/1999/02/22-rdf-syntax-ns#"
   xmlns:svg="http://www.w3.org/2000/svg"
   xmlns="http://www.w3.org/2000/svg"
   xmlns:sodipodi="http://sodipodi.sourceforge.net/DTD/sodipodi-0.dtd"
   xmlns:inkscape="http://www.inkscape.org/namespaces/inkscape"
   width="210mm"
   height="297mm"
   viewBox="0 0 744.09448819 1052.3622047"
   id="svg2"
   version="1.1"
   inkscape:version="0.91 r13725"
   sodipodi:docname="icone_cat_corrida_montanha.svg">
  <defs
     id="defs4" />
  <sodipodi:namedview
     id="base"
     pagecolor="#ffffff"
     bordercolor="#666666"
     borderopacity="1.0"
     inkscape:pageopacity="0.0"
     inkscape:pageshadow="2"
     inkscape:zoom="13.166569"
     inkscape:cx="-2.7486968"
     inkscape:cy="6.4233198"
     inkscape:document-units="px"
     inkscape:current-layer="layer1"
     showgrid="true"
     showguides="true"
     inkscape:snap-page="true"
     inkscape:snap-bbox="true"
     inkscape:bbox-paths="true"
     inkscape:bbox-nodes="false"
     inkscape:snap-grids="false"
     inkscape:snap-bbox-edge-midpoints="true"
     inkscape:window-width="1920"
     inkscape:window-height="1033"
     inkscape:window-x="1438"
     inkscape:window-y="-3"
     inkscape:window-maximized="1"
     inkscape:snap-intersection-paths="true"
     inkscape:object-nodes="true"
     inkscape:snap-bbox-midpoints="false"
     inkscape:snap-smooth-nodes="true"
     inkscape:snap-midpoints="true"
     inkscape:snap-nodes="true"
     inkscape:snap-to-guides="false"
     inkscape:object-paths="true">
    <inkscape:grid
       type="xygrid"
       id="grid4226"
       spacingx="2"
       spacingy="2" />
    <sodipodi:guide
       position="0,24.000023"
       orientation="24,0"
       id="guide4615" />
    <sodipodi:guide
       position="0,2.2107223e-05"
       orientation="0,24"
       id="guide4617" />
    <sodipodi:guide
       position="24,2.2107223e-05"
       orientation="-24,0"
       id="guide4619" />
    <sodipodi:guide
       position="24,24.000023"
       orientation="0,-24"
       id="guide4621" />
    <sodipodi:guide
       position="0,12.000005"
       orientation="0,24"
       id="guide4658" />
    <sodipodi:guide
       position="0,4.7244097e-06"
       orientation="-24,24"
       id="guide4711" />
  </sodipodi:namedview>
  <metadata
     id="metadata7">
    <rdf:RDF>
      <cc:Work
         rdf:about="">
        <dc:format>image/svg+xml</dc:format>
        <dc:type
           rdf:resource="http://purl.org/dc/dcmitype/StillImage" />
        <dc:title></dc:title>
      </cc:Work>
    </rdf:RDF>
  </metadata>
  <g
     inkscape:label="Camada 1"
     inkscape:groupmode="layer"
     id="layer1">
    <g
       id="g6115"
       transform="matrix(0.04994387,0,0,0.04994368,-1.8402131,999.48086)"
       style="fill:#757575;fill-opacity:1">
      <path
         style="fill:#757575;fill-opacity:1;fill-rule:nonzero"
         inkscape:connector-curvature="0"
         d="m 334.44319,682.78555 c 17.78433,0 32.20669,-14.4711 32.20669,-32.25543 0,-17.78434 -14.42236,-32.2067 -32.20669,-32.2067 -17.83307,0 -32.25543,14.42236 -32.25543,32.2067 0,17.78433 14.42236,32.25543 32.25543,32.25543"
         id="path8248" />
      <path
         style="fill:#757575;fill-opacity:1;fill-rule:nonzero"
         inkscape:connector-curvature="0"
         d="m 214.44899,700.70935 -50.137,57.93298 c -2.97201,3.65402 -7.45501,5.896 -12.522,5.896 -8.96499,0 -16.22501,-7.25998 -16.22501,-16.17698 0,-4.872 2.09501,-9.20901 5.45701,-12.181 L 195.106,673.91134 c 2.97199,-3.557 7.45499,-5.84701 12.522,-5.84701 l 78.25098,-0.049 c 5.75,0 10.914,2.33899 14.715,5.99298 l 49.893,49.89401 41.36701,-41.26999 c 2.92401,-2.48502 6.67602,-3.94702 10.768,-3.94702 9.258,0 16.71301,7.504 16.71301,16.76202 0,4.04398 -1.36499,7.698 -3.75201,10.62198 l -49.845,50.23403 c -15.15299,15.10501 -27.33398,2.29001 -27.33398,2.29001 l -30.599,-30.745 -47.79801,55.30198 43.80298,43.80301 c 0,0 9.25702,8.57601 3.94602,25.62899 l -24.55701,109.48304 c -1.94901,9.50195 -10.32901,16.664 -20.366,16.664 -11.548,0 -20.854,-9.35505 -20.854,-20.85401 0,-1.85101 0.195,-3.60504 0.63299,-5.26202 l 20.22101,-89.79901 -49.797,-48.383 -42.828,47.75 c 0,0 -6.919,8.52704 -25.28799,7.89301 l -86.875,0.14599 c -9.696,0.14704 -18.515,-6.47998 -20.65901,-16.32202 -2.583,-11.20697 4.33601,-22.21896 15.591,-24.70297 1.755,-0.38999 3.509,-0.53601 5.214,-0.48801 l 74.694,0.19501 110.45801,-128.047 -28.89401,-0.14599 z"
         id="path8256" />
    </g>
    <path
       d="m 20.066434,1047.9933 1.575435,-0.1025 1.381896,-2.787 0.976235,0.026 0,6.7975 c 0,0.24 -0.397116,0.4349 -0.887799,0.4349 L 4.4438989,1052.3536 4,1051.4223 l 4.908304,-0.5346 0.766035,-0.8935 4.526141,-0.7935 3.462964,0.7526 1.3302,-0.2121 1.07279,-1.7479 z"
       id="svg_5"
       inkscape:connector-curvature="0"
       style="stroke:none;stroke-opacity:1;fill:#757575;fill-opacity:1" />
  </g>
</svg>
