<?xml version="1.0" encoding="UTF-8" standalone="no"?>
<!-- Created with Inkscape (http://www.inkscape.org/) -->

<svg
   xmlns:dc="http://purl.org/dc/elements/1.1/"
   xmlns:cc="http://creativecommons.org/ns#"
   xmlns:rdf="http://www.w3.org/1999/02/22-rdf-syntax-ns#"
   xmlns:svg="http://www.w3.org/2000/svg"
   xmlns="http://www.w3.org/2000/svg"
   xmlns:sodipodi="http://sodipodi.sourceforge.net/DTD/sodipodi-0.dtd"
   xmlns:inkscape="http://www.inkscape.org/namespaces/inkscape"
   width="210mm"
   height="297mm"
   viewBox="0 0 744.09448819 1052.3622047"
   id="svg2"
   version="1.1"
   inkscape:version="0.91 r13725"
   sodipodi:docname="icone_cat_escalada.svg">
  <defs
     id="defs4" />
  <sodipodi:namedview
     id="base"
     pagecolor="#ffffff"
     bordercolor="#666666"
     borderopacity="1.0"
     inkscape:pageopacity="0.0"
     inkscape:pageshadow="2"
     inkscape:zoom="18.620341"
     inkscape:cx="-0.58677399"
     inkscape:cy="10.36602"
     inkscape:document-units="px"
     inkscape:current-layer="layer1"
     showgrid="true"
     showguides="true"
     inkscape:snap-page="true"
     inkscape:snap-bbox="true"
     inkscape:bbox-paths="true"
     inkscape:bbox-nodes="false"
     inkscape:snap-grids="true"
     inkscape:snap-bbox-edge-midpoints="true"
     inkscape:window-width="1920"
     inkscape:window-height="1033"
     inkscape:window-x="1438"
     inkscape:window-y="-3"
     inkscape:window-maximized="1"
     inkscape:snap-intersection-paths="true"
     inkscape:object-nodes="true"
     inkscape:snap-bbox-midpoints="false"
     inkscape:snap-smooth-nodes="true"
     inkscape:snap-midpoints="true"
     inkscape:snap-nodes="false"
     inkscape:snap-to-guides="false"
     inkscape:object-paths="true">
    <inkscape:grid
       type="xygrid"
       id="grid4226"
       spacingx="2"
       spacingy="2" />
    <sodipodi:guide
       position="0,24.000023"
       orientation="24,0"
       id="guide4615" />
    <sodipodi:guide
       position="0,2.2107223e-05"
       orientation="0,24"
       id="guide4617" />
    <sodipodi:guide
       position="24,2.2107223e-05"
       orientation="-24,0"
       id="guide4619" />
    <sodipodi:guide
       position="24,24.000023"
       orientation="0,-24"
       id="guide4621" />
    <sodipodi:guide
       position="0,12.000005"
       orientation="0,24"
       id="guide4658" />
    <sodipodi:guide
       position="0,4.7244097e-06"
       orientation="-24,24"
       id="guide4711" />
  </sodipodi:namedview>
  <metadata
     id="metadata7">
    <rdf:RDF>
      <cc:Work
         rdf:about="">
        <dc:format>image/svg+xml</dc:format>
        <dc:type
           rdf:resource="http://purl.org/dc/dcmitype/StillImage" />
        <dc:title></dc:title>
      </cc:Work>
    </rdf:RDF>
  </metadata>
  <g
     inkscape:label="Camada 1"
     inkscape:groupmode="layer"
     id="layer1">
    <g
       id="g6357"
       transform="matrix(0.0465692,0,0,0.0465692,-2.7012853,995.40239)"
       style="fill:#757575;fill-opacity:1">
      <path
         d="m 321.62187,1049.5525 c -4.81658,1.7776 -10.2066,2.8097 -15.71127,2.8097 -5.90607,0 -11.75479,-0.6881 -17.1448,-2.2363 l -60.89554,139.9681 c -5.56201,12.9016 -20.87192,17.2594 -34.23224,9.7478 -13.30298,-7.5116 -19.61043,-23.9683 -13.87639,-36.8699 l 74.65726,-171.21853 95.18513,0 0,-15.99799 48.16596,-22.42013 c 12.6149,-6.13541 29.01425,4.35788 32.34002,17.7182 l 23.62424,94.72645 c 3.38309,13.4176 -4.81659,27.0073 -18.23425,30.3331 -13.47501,3.383 -27.12204,-4.8166 -30.44776,-18.2343 l -15.02322,-60.3795 -68.40714,32.0533 z"
         id="path5040"
         inkscape:connector-curvature="0"
         style="fill:#757575;fill-rule:nonzero;fill-opacity:1" />
      <path
         d="M 365.48732,951.44304 C 469.78957,899.72195 510.21459,722.54 510.21459,707.74616 l -14.33512,0 c -5.39001,36.92725 -50.17288,184.80823 -130.39215,227.69889 l 0,15.99799 z"
         id="path5042"
         inkscape:connector-curvature="0"
         style="fill:#757575;fill-rule:nonzero;fill-opacity:1" />
      <path
         d="m 173.0528,912.68089 c 5.44734,8.54373 16.45671,12.32819 26.20457,8.31436 l 55.16152,-21.61734 0,76.49216 95.18513,0 0,-88.59099 85.32257,-136.52759 c 6.25009,-9.97723 3.38309,-23.16553 -6.70883,-29.58766 -9.97723,-6.25011 -23.16553,-3.32574 -28.78491,6.42213 l -72.4783,115.9997 -43.63608,0.11469 c -2.80969,0 -5.61936,0.45872 -8.42905,1.5482 l -75.40268,29.58764 -38.87681,-58.88862 c -6.3648,-9.86255 -19.61043,-12.78691 -29.58767,-6.42214 -9.97723,6.42214 -12.84426,19.72512 -6.47947,29.70237 l 48.51001,73.45309 z"
         id="path5044"
         inkscape:connector-curvature="0"
         style="fill:#757575;fill-rule:nonzero;fill-opacity:1" />
      <path
         d="m 295.47463,835.84471 c 20.9866,0 38.01672,-16.91544 38.01672,-37.8447 0,-20.92925 -17.03012,-37.95936 -38.01672,-37.95936 -20.92926,0 -37.95935,17.03011 -37.95935,37.95936 0,20.92926 17.03009,37.8447 37.95935,37.8447"
         id="path5046"
         inkscape:connector-curvature="0"
         style="fill:#757575;fill-rule:nonzero;fill-opacity:1" />
      <path
         d="m 349.60402,1223.122 0,-170.7598 -15.99798,7.4543 0,163.3055 15.99798,0 z"
         id="path5048"
         inkscape:connector-curvature="0"
         style="fill:#757575;fill-rule:nonzero;fill-opacity:1" />
    </g>
  </g>
</svg>
