<?xml version="1.0" encoding="UTF-8" standalone="no"?>
<!-- Created with Inkscape (http://www.inkscape.org/) -->

<svg
   xmlns:dc="http://purl.org/dc/elements/1.1/"
   xmlns:cc="http://creativecommons.org/ns#"
   xmlns:rdf="http://www.w3.org/1999/02/22-rdf-syntax-ns#"
   xmlns:svg="http://www.w3.org/2000/svg"
   xmlns="http://www.w3.org/2000/svg"
   xmlns:sodipodi="http://sodipodi.sourceforge.net/DTD/sodipodi-0.dtd"
   xmlns:inkscape="http://www.inkscape.org/namespaces/inkscape"
   width="210mm"
   height="297mm"
   viewBox="0 0 744.09448819 1052.3622047"
   id="svg2"
   version="1.1"
   inkscape:version="0.91 r13725"
   sodipodi:docname="icone_cat_actividades_nauticas.svg">
  <defs
     id="defs4" />
  <sodipodi:namedview
     id="base"
     pagecolor="#ffffff"
     bordercolor="#666666"
     borderopacity="1.0"
     inkscape:pageopacity="0.0"
     inkscape:pageshadow="2"
     inkscape:zoom="16"
     inkscape:cx="9.2917246"
     inkscape:cy="9.7095095"
     inkscape:document-units="px"
     inkscape:current-layer="layer1"
     showgrid="true"
     showguides="true"
     inkscape:snap-page="true"
     inkscape:snap-bbox="true"
     inkscape:bbox-paths="false"
     inkscape:bbox-nodes="false"
     inkscape:snap-grids="false"
     inkscape:snap-bbox-edge-midpoints="true"
     inkscape:window-width="1920"
     inkscape:window-height="1033"
     inkscape:window-x="1438"
     inkscape:window-y="-3"
     inkscape:window-maximized="1"
     inkscape:object-paths="true"
     inkscape:snap-intersection-paths="true"
     inkscape:object-nodes="true"
     inkscape:snap-smooth-nodes="true"
     inkscape:snap-midpoints="true">
    <inkscape:grid
       type="xygrid"
       id="grid4226" />
    <sodipodi:guide
       position="0,24.000023"
       orientation="24,0"
       id="guide4615" />
    <sodipodi:guide
       position="0,2.2107223e-05"
       orientation="0,24"
       id="guide4617" />
    <sodipodi:guide
       position="24,2.2107223e-05"
       orientation="-24,0"
       id="guide4619" />
    <sodipodi:guide
       position="24,24.000023"
       orientation="0,-24"
       id="guide4621" />
    <sodipodi:guide
       position="0,12.000005"
       orientation="0,24"
       id="guide4658" />
  </sodipodi:namedview>
  <metadata
     id="metadata7">
    <rdf:RDF>
      <cc:Work
         rdf:about="">
        <dc:format>image/svg+xml</dc:format>
        <dc:type
           rdf:resource="http://purl.org/dc/dcmitype/StillImage" />
        <dc:title />
      </cc:Work>
    </rdf:RDF>
  </metadata>
  <g
     inkscape:label="Camada 1"
     inkscape:groupmode="layer"
     id="layer1">
    <g
       id="g5444"
       transform="translate(-0.00390619,-1.2491)"
       style="fill:#757575;fill-opacity:1">
      <path
         id="path5420"
         d="m 9,1048.8613 c 0,0 -1,1.5 -5,1.5 -2,0 -3.25,-0.375 -4,-0.75 l 0,2 c 0.75,0.375 2,0.75 4,0.75 4,0 5,-1.5 5,-1.5 0,0 1,1.5 5,1.5 4,0 5,-1.5 5,-1.5 0,0 1,1.5 5,1.5 0.0014,0 0.0025,0 0.0039,0 l 0,-2 c -0.0014,0 -0.0025,0 -0.0039,0 -4,0 -5,-1.5 -5,-1.5 0,0 -1,1.5 -5,1.5 -4,0 -5,-1.5 -5,-1.5 z"
         style="fill:#757575;fill-opacity:1;fill-rule:evenodd;stroke:none;stroke-width:0.1;stroke-linecap:butt;stroke-linejoin:miter;stroke-miterlimit:4;stroke-dasharray:none;stroke-opacity:1"
         inkscape:connector-curvature="0" />
      <path
         id="path5423"
         d="m 5,1042.8613 c 0,0 -1,1.5 -5,1.5 l 0,2 c 4,0 5,-1.5 5,-1.5 0,0 1,1.5 5,1.5 4,0 5,-1.5 5,-1.5 0,0 1,1.5 5,1.5 2.003984,0 3.254407,-0.3762 4.003906,-0.7519 l 0,-2 c -0.749499,0.3757 -1.999922,0.7519 -4.003906,0.7519 -4,0 -5,-1.5 -5,-1.5 0,0 -1,1.5 -5,1.5 -4,0 -5,-1.5 -5,-1.5 z"
         style="fill:#757575;fill-opacity:1;fill-rule:evenodd;stroke:none;stroke-width:0.1;stroke-linecap:butt;stroke-linejoin:miter;stroke-miterlimit:4;stroke-dasharray:none;stroke-opacity:1"
         inkscape:connector-curvature="0" />
      <path
         id="path5425"
         d="m 1,1036.8613 c 0,0 -0.25,0.375 -1,0.75 l 0,2 c 0.75,-0.375 1,-0.75 1,-0.75 0,0 1,1.5 5,1.5 4,0 5,-1.5 5,-1.5 0,0 1,1.5 5,1.5 4,0 5,-1.5 5,-1.5 0,0 0.675618,0.9573 3.003906,1.3379 l 0,-2 C 21.675618,1037.8186 21,1036.8613 21,1036.8613 c 0,0 -1,1.5 -5,1.5 -4,0 -5,-1.5 -5,-1.5 0,0 -1,1.5 -5,1.5 -4,0 -5,-1.5 -5,-1.5 z"
         style="fill:#757575;fill-opacity:1;fill-rule:evenodd;stroke:none;stroke-width:0.1;stroke-linecap:butt;stroke-linejoin:miter;stroke-miterlimit:4;stroke-dasharray:none;stroke-opacity:1"
         inkscape:connector-curvature="0" />
      <path
         id="path5427"
         d="m 7,1030.8613 c 0,0 -1,1.5 -5,1.5 -0.7879713,0 -1.42957665,-0.069 -2,-0.1621 l 0,2 c 0.57042335,0.093 1.2120287,0.1621 2,0.1621 4,0 5,-1.5 5,-1.5 0,0 1,1.5 5,1.5 4,0 5,-1.5 5,-1.5 0,0 1,1.5 5,1.5 0.789697,0 1.432677,-0.068 2.003906,-0.1621 l 0,-2 c -0.571229,0.094 -1.214209,0.1621 -2.003906,0.1621 -4,0 -5,-1.5 -5,-1.5 0,0 -1,1.5 -5,1.5 -4,0 -5,-1.5 -5,-1.5 z"
         style="fill:#757575;fill-opacity:1;fill-rule:evenodd;stroke:none;stroke-width:0.1;stroke-linecap:butt;stroke-linejoin:miter;stroke-miterlimit:4;stroke-dasharray:none;stroke-opacity:1"
         inkscape:connector-curvature="0" />
    </g>
    <path
       id="path5429"
       style="fill:#757575;fill-opacity:1;fill-rule:evenodd;stroke:none;stroke-width:0.1;stroke-linecap:butt;stroke-linejoin:miter;stroke-miterlimit:4;stroke-dasharray:none;stroke-opacity:1"
       d="m 35,1059.6122 c 0,0 -1,1.5 -5,1.5 -4,0 -5,-1.5 -5,-1.5 0,0 -1,1.5 -5,1.5 -4,0 -5,-1.5 -5,-1.5 0,0 -1,1.5 -5,1.5 -4,0 -5,-1.5 -5,-1.5 0,0 -1,1.5 -5,1.5 -4,0 -5,-1.5 -5,-1.5 l 0,2 c 0,0 1,1.5 5,1.5 4,0 5,-1.5 5,-1.5 0,0 1,1.5 5,1.5 4,0 5,-1.5 5,-1.5 0,0 1,1.5 5,1.5 4,0 5,-1.5 5,-1.5 0,0 1,1.5 5,1.5 4,0 5,-1.5 5,-1.5 z"
       inkscape:connector-curvature="0"
       sodipodi:nodetypes="cscscscsccscscscscc" />
  </g>
</svg>
