<?xml version="1.0" encoding="UTF-8" standalone="no"?>
<!-- Created with Inkscape (http://www.inkscape.org/) -->

<svg
   xmlns:dc="http://purl.org/dc/elements/1.1/"
   xmlns:cc="http://creativecommons.org/ns#"
   xmlns:rdf="http://www.w3.org/1999/02/22-rdf-syntax-ns#"
   xmlns:svg="http://www.w3.org/2000/svg"
   xmlns="http://www.w3.org/2000/svg"
   xmlns:sodipodi="http://sodipodi.sourceforge.net/DTD/sodipodi-0.dtd"
   xmlns:inkscape="http://www.inkscape.org/namespaces/inkscape"
   width="210mm"
   height="297mm"
   viewBox="0 0 744.09448819 1052.3622047"
   id="svg2"
   version="1.1"
   inkscape:version="0.91 r13725"
   sodipodi:docname="icone_cat_vela.svg">
  <defs
     id="defs4" />
  <sodipodi:namedview
     id="base"
     pagecolor="#ffffff"
     bordercolor="#666666"
     borderopacity="1.0"
     inkscape:pageopacity="0.0"
     inkscape:pageshadow="2"
     inkscape:zoom="18.620341"
     inkscape:cx="0.5227938"
     inkscape:cy="9.6788651"
     inkscape:document-units="px"
     inkscape:current-layer="layer1"
     showgrid="true"
     showguides="true"
     inkscape:snap-page="true"
     inkscape:snap-bbox="true"
     inkscape:bbox-paths="true"
     inkscape:bbox-nodes="false"
     inkscape:snap-grids="true"
     inkscape:snap-bbox-edge-midpoints="true"
     inkscape:window-width="1920"
     inkscape:window-height="1033"
     inkscape:window-x="1438"
     inkscape:window-y="-3"
     inkscape:window-maximized="1"
     inkscape:snap-intersection-paths="true"
     inkscape:object-nodes="true"
     inkscape:snap-bbox-midpoints="false"
     inkscape:snap-smooth-nodes="true"
     inkscape:snap-midpoints="true"
     inkscape:snap-nodes="false"
     inkscape:snap-to-guides="false"
     inkscape:object-paths="true">
    <inkscape:grid
       type="xygrid"
       id="grid4226"
       spacingx="2"
       spacingy="2" />
    <sodipodi:guide
       position="0,24.000023"
       orientation="24,0"
       id="guide4615" />
    <sodipodi:guide
       position="0,2.2107223e-05"
       orientation="0,24"
       id="guide4617" />
    <sodipodi:guide
       position="24,2.2107223e-05"
       orientation="-24,0"
       id="guide4619" />
    <sodipodi:guide
       position="24,24.000023"
       orientation="0,-24"
       id="guide4621" />
    <sodipodi:guide
       position="0,12.000005"
       orientation="0,24"
       id="guide4658" />
    <sodipodi:guide
       position="0,4.7244097e-06"
       orientation="-24,24"
       id="guide4711" />
  </sodipodi:namedview>
  <metadata
     id="metadata7">
    <rdf:RDF>
      <cc:Work
         rdf:about="">
        <dc:format>image/svg+xml</dc:format>
        <dc:type
           rdf:resource="http://purl.org/dc/dcmitype/StillImage" />
        <dc:title></dc:title>
      </cc:Work>
    </rdf:RDF>
  </metadata>
  <g
     inkscape:label="Camada 1"
     inkscape:groupmode="layer"
     id="layer1">
    <g
       id="g6476"
       transform="matrix(0.22640014,0,0,0.22640014,34.521607,802.92173)"
       style="fill:#757575;fill-opacity:1">
      <path
         id="path6430"
         d="m -50.453,1101.7682 c -2.125,0 -4.195,-0.492 -6.031,-1.32 -1.875,-0.883 -4,-1.391 -6.219,-1.391 -2.203,0 -4.328,0.508 -6.203,1.391 -1.859,0.828 -3.906,1.32 -6.055,1.32 -2.125,0 -4.203,-0.492 -6.031,-1.32 -1.883,-0.883 -4.008,-1.391 -6.227,-1.391 -2.195,0 -4.32,0.508 -6.203,1.391 -1.852,0.828 -3.906,1.32 -6.055,1.32 -2.149,0 -4.195,-0.492 -6.031,-1.32 -1.883,-0.883 -4.008,-1.391 -6.219,-1.391 -2.219,0 -4.344,0.508 -6.219,1.391 -1.836,0.828 -3.898,1.32 -6.047,1.32 -2.133,0 -4.195,-0.492 -6.039,-1.32 -1.883,-0.883 -4.008,-1.391 -6.219,-1.391 -2.203,0 -4.328,0.508 -6.211,1.391 -1.844,0.828 -3.891,1.32 -6.039,1.32 l 0,-9.062 c 2.148,0 4.195,-0.484 6.039,-1.32 1.883,-0.852 4.008,-1.359 6.211,-1.359 2.211,0 4.336,0.508 6.219,1.359 1.844,0.836 3.906,1.32 6.039,1.32 2.148,0 4.211,-0.484 6.047,-1.32 1.875,-0.852 4,-1.359 6.219,-1.359 2.211,0 4.336,0.508 6.219,1.359 1.836,0.836 3.883,1.32 6.031,1.32 2.148,0 4.203,-0.484 6.055,-1.32 1.883,-0.852 4.008,-1.359 6.203,-1.359 2.219,0 4.344,0.508 6.227,1.359 1.828,0.836 3.906,1.32 6.031,1.32 2.148,0 4.195,-0.484 6.055,-1.32 1.875,-0.852 4,-1.359 6.203,-1.359 2.219,0 4.344,0.508 6.219,1.359 1.836,0.836 3.906,1.32 6.031,1.32 l 0,9.062 z"
         style="fill:#757575;fill-opacity:1"
         inkscape:connector-curvature="0" />
      <polygon
         transform="translate(-162.414,989.2412)"
         id="polygon6432"
         points="72.609,74.684 16.781,74.684 72.609,6.52 "
         style="fill:#757575;fill-opacity:1" />
      <path
         id="path6434"
         d="m -84.508,1011.4792 c 16.43,7.641 35.938,28.008 33.375,52.445 l -33.375,0 0,-52.445 0,0 z"
         style="fill:#757575;fill-opacity:1"
         inkscape:connector-curvature="0" />
      <path
         id="path6436"
         d="m -58.187,1068.8542 -15.235,0 -59.031,0 0,13.477 c 0.836,0.219 1.664,0.461 2.422,0.828 1.844,0.805 3.906,1.297 6.039,1.297 2.148,0 4.211,-0.492 6.047,-1.297 1.875,-0.875 4,-1.391 6.219,-1.391 2.211,0 4.336,0.516 6.219,1.391 1.836,0.805 3.883,1.297 6.031,1.297 2.148,0 4.203,-0.492 6.055,-1.297 1.883,-0.875 4.008,-1.391 6.203,-1.391 2.219,0 4.344,0.516 6.227,1.391 1.828,0.805 3.906,1.297 6.031,1.297 0.414,0 0.805,-0.102 1.195,-0.148 0.047,0 0.047,0.047 0.094,0.047 0.273,0 0.469,-0.117 0.734,-0.117 0.492,-0.07 0.977,-0.125 1.469,-0.242 4.391,-0.906 7.227,-4.328 7.227,-4.328 l 8.539,-10.812 -2.485,0 z"
         style="fill:#757575;fill-opacity:1"
         inkscape:connector-curvature="0" />
    </g>
  </g>
</svg>
